<svg id="visual" viewBox="0 0 900 200" width="900" height="200" xmlns="http://www.w3.org/2000/svg" xmlns:xlink="http://www.w3.org/1999/xlink" version="1.1"><rect x="0" y="0" width="900" height="200" fill="#422487"></rect><path d="M0 56L10.7 54.8C21.3 53.7 42.7 51.3 64.2 65.7C85.7 80 107.3 111 128.8 126.2C150.3 141.3 171.7 140.7 193 132.5C214.3 124.3 235.7 108.7 257 107.7C278.3 106.7 299.7 120.3 321.2 118.8C342.7 117.3 364.3 100.7 385.8 94C407.3 87.3 428.7 90.7 450 95C471.3 99.3 492.7 104.7 514.2 105C535.7 105.3 557.3 100.7 578.8 101.5C600.3 102.3 621.7 108.7 643 109.3C664.3 110 685.7 105 707 96.2C728.3 87.3 749.7 74.7 771.2 76.5C792.7 78.3 814.3 94.7 835.8 98.8C857.3 103 878.7 95 889.3 91L900 87L900 0L889.3 0C878.7 0 857.3 0 835.8 0C814.3 0 792.7 0 771.2 0C749.7 0 728.3 0 707 0C685.7 0 664.3 0 643 0C621.7 0 600.3 0 578.8 0C557.3 0 535.7 0 514.2 0C492.7 0 471.3 0 450 0C428.7 0 407.3 0 385.8 0C364.3 0 342.7 0 321.2 0C299.7 0 278.3 0 257 0C235.7 0 214.3 0 193 0C171.7 0 150.3 0 128.8 0C107.3 0 85.7 0 64.2 0C42.7 0 21.3 0 10.7 0L0 0Z" fill="#365391" stroke-linecap="round" stroke-linejoin="miter"></path></svg>