<svg id="visual" viewBox="0 0 900 200" width="900" height="200" xmlns="http://www.w3.org/2000/svg" xmlns:xlink="http://www.w3.org/1999/xlink" version="1.1"><path d="M0 70L10.7 68.2C21.3 66.3 42.7 62.7 64.2 68.3C85.7 74 107.3 89 128.8 91C150.3 93 171.7 82 193 87.7C214.3 93.3 235.7 115.7 257 122.8C278.3 130 299.7 122 321.2 113.7C342.7 105.3 364.3 96.7 385.8 94.3C407.3 92 428.7 96 450 101C471.3 106 492.7 112 514.2 112.8C535.7 113.7 557.3 109.3 578.8 103.5C600.3 97.7 621.7 90.3 643 81C664.3 71.7 685.7 60.3 707 59.2C728.3 58 749.7 67 771.2 78.2C792.7 89.3 814.3 102.7 835.8 106.5C857.3 110.3 878.7 104.7 889.3 101.8L900 99L900 201L889.3 201C878.7 201 857.3 201 835.8 201C814.3 201 792.7 201 771.2 201C749.7 201 728.3 201 707 201C685.7 201 664.3 201 643 201C621.7 201 600.3 201 578.8 201C557.3 201 535.7 201 514.2 201C492.7 201 471.3 201 450 201C428.7 201 407.3 201 385.8 201C364.3 201 342.7 201 321.2 201C299.7 201 278.3 201 257 201C235.7 201 214.3 201 193 201C171.7 201 150.3 201 128.8 201C107.3 201 85.7 201 64.2 201C42.7 201 21.3 201 10.7 201L0 201Z" fill="#365391" stroke-linecap="round" stroke-linejoin="miter"></path></svg>