<svg id="visual" viewBox="0 0 900 200" width="900" height="200" xmlns="http://www.w3.org/2000/svg" xmlns:xlink="http://www.w3.org/1999/xlink" version="1.1"><path d="M0 147L10.7 140.3C21.3 133.7 42.7 120.3 64.2 115C85.7 109.7 107.3 112.3 128.8 110.5C150.3 108.7 171.7 102.3 193 105.5C214.3 108.7 235.7 121.3 257 130C278.3 138.7 299.7 143.3 321.2 140.2C342.7 137 364.3 126 385.8 114.2C407.3 102.3 428.7 89.7 450 91.2C471.3 92.7 492.7 108.3 514.2 111.5C535.7 114.7 557.3 105.3 578.8 98C600.3 90.7 621.7 85.3 643 92C664.3 98.7 685.7 117.3 707 125C728.3 132.7 749.7 129.3 771.2 116.7C792.7 104 814.3 82 835.8 77.3C857.3 72.7 878.7 85.3 889.3 91.7L900 98L900 0L889.3 0C878.7 0 857.3 0 835.8 0C814.3 0 792.7 0 771.2 0C749.7 0 728.3 0 707 0C685.7 0 664.3 0 643 0C621.7 0 600.3 0 578.8 0C557.3 0 535.7 0 514.2 0C492.7 0 471.3 0 450 0C428.7 0 407.3 0 385.8 0C364.3 0 342.7 0 321.2 0C299.7 0 278.3 0 257 0C235.7 0 214.3 0 193 0C171.7 0 150.3 0 128.8 0C107.3 0 85.7 0 64.2 0C42.7 0 21.3 0 10.7 0L0 0Z" fill="#422487" stroke-linecap="round" stroke-linejoin="miter"></path></svg>