<svg id="visual" viewBox="0 0 900 200" width="900" height="200" xmlns="http://www.w3.org/2000/svg" xmlns:xlink="http://www.w3.org/1999/xlink" version="1.1"><rect x="0" y="0" width="900" height="200" fill="#422487"></rect><path d="M0 79L11.5 81.8C23 84.7 46 90.3 69 87.8C92 85.3 115 74.7 138.2 71.7C161.3 68.7 184.7 73.3 207.8 77.8C231 82.3 254 86.7 277 84.3C300 82 323 73 346 71.2C369 69.3 392 74.7 415.2 72.8C438.3 71 461.7 62 484.8 58.3C508 54.7 531 56.3 554 66C577 75.7 600 93.3 623 97.8C646 102.3 669 93.7 692.2 85.3C715.3 77 738.7 69 761.8 64.5C785 60 808 59 831 61.3C854 63.7 877 69.3 888.5 72.2L900 75L900 201L888.5 201C877 201 854 201 831 201C808 201 785 201 761.8 201C738.7 201 715.3 201 692.2 201C669 201 646 201 623 201C600 201 577 201 554 201C531 201 508 201 484.8 201C461.7 201 438.3 201 415.2 201C392 201 369 201 346 201C323 201 300 201 277 201C254 201 231 201 207.8 201C184.7 201 161.3 201 138.2 201C115 201 92 201 69 201C46 201 23 201 11.5 201L0 201Z" fill="#391e78"></path><path d="M0 101L11.5 106.5C23 112 46 123 69 126C92 129 115 124 138.2 121.5C161.3 119 184.7 119 207.8 122.7C231 126.3 254 133.7 277 132.5C300 131.3 323 121.7 346 111.7C369 101.7 392 91.3 415.2 86.7C438.3 82 461.7 83 484.8 93.3C508 103.7 531 123.3 554 127.5C577 131.7 600 120.3 623 114.5C646 108.7 669 108.3 692.2 109.5C715.3 110.7 738.7 113.3 761.8 116.5C785 119.7 808 123.3 831 120.8C854 118.3 877 109.7 888.5 105.3L900 101L900 201L888.5 201C877 201 854 201 831 201C808 201 785 201 761.8 201C738.7 201 715.3 201 692.2 201C669 201 646 201 623 201C600 201 577 201 554 201C531 201 508 201 484.8 201C461.7 201 438.3 201 415.2 201C392 201 369 201 346 201C323 201 300 201 277 201C254 201 231 201 207.8 201C184.7 201 161.3 201 138.2 201C115 201 92 201 69 201C46 201 23 201 11.5 201L0 201Z" fill="#323b87"></path><path d="M0 152L11.5 150.7C23 149.3 46 146.7 69 147.8C92 149 115 154 138.2 157.5C161.3 161 184.7 163 207.8 159.3C231 155.7 254 146.3 277 143.8C300 141.3 323 145.7 346 144.5C369 143.3 392 136.7 415.2 137.7C438.3 138.7 461.7 147.3 484.8 152.5C508 157.7 531 159.3 554 160.8C577 162.3 600 163.7 623 158C646 152.3 669 139.7 692.2 133.7C715.3 127.7 738.7 128.3 761.8 129.2C785 130 808 131 831 137C854 143 877 154 888.5 159.5L900 165L900 201L888.5 201C877 201 854 201 831 201C808 201 785 201 761.8 201C738.7 201 715.3 201 692.2 201C669 201 646 201 623 201C600 201 577 201 554 201C531 201 508 201 484.8 201C461.7 201 438.3 201 415.2 201C392 201 369 201 346 201C323 201 300 201 277 201C254 201 231 201 207.8 201C184.7 201 161.3 201 138.2 201C115 201 92 201 69 201C46 201 23 201 11.5 201L0 201Z" fill="#365391"></path></svg>