<svg id="visual" viewBox="0 0 900 200" width="900" height="200" xmlns="http://www.w3.org/2000/svg" xmlns:xlink="http://www.w3.org/1999/xlink" version="1.1"><rect x="0" y="0" width="900" height="200" fill="#422487"></rect><path d="M0 152L11.5 146C23 140 46 128 69 121.7C92 115.3 115 114.7 138.2 113.5C161.3 112.3 184.7 110.7 207.8 115.5C231 120.3 254 131.7 277 132.7C300 133.7 323 124.3 346 116.2C369 108 392 101 415.2 106.5C438.3 112 461.7 130 484.8 137.8C508 145.7 531 143.3 554 145.3C577 147.3 600 153.7 623 145C646 136.3 669 112.7 692.2 108.7C715.3 104.7 738.7 120.3 761.8 125.5C785 130.7 808 125.3 831 129.2C854 133 877 146 888.5 152.5L900 159L900 0L888.5 0C877 0 854 0 831 0C808 0 785 0 761.8 0C738.7 0 715.3 0 692.2 0C669 0 646 0 623 0C600 0 577 0 554 0C531 0 508 0 484.8 0C461.7 0 438.3 0 415.2 0C392 0 369 0 346 0C323 0 300 0 277 0C254 0 231 0 207.8 0C184.7 0 161.3 0 138.2 0C115 0 92 0 69 0C46 0 23 0 11.5 0L0 0Z" fill="#391e78"></path><path d="M0 105L11.5 102.8C23 100.7 46 96.3 69 92.2C92 88 115 84 138.2 86C161.3 88 184.7 96 207.8 98.2C231 100.3 254 96.7 277 94.8C300 93 323 93 346 86.7C369 80.3 392 67.7 415.2 65.5C438.3 63.3 461.7 71.7 484.8 78.8C508 86 531 92 554 93C577 94 600 90 623 86.3C646 82.7 669 79.3 692.2 78.8C715.3 78.3 738.7 80.7 761.8 83.3C785 86 808 89 831 85C854 81 877 70 888.5 64.5L900 59L900 0L888.5 0C877 0 854 0 831 0C808 0 785 0 761.8 0C738.7 0 715.3 0 692.2 0C669 0 646 0 623 0C600 0 577 0 554 0C531 0 508 0 484.8 0C461.7 0 438.3 0 415.2 0C392 0 369 0 346 0C323 0 300 0 277 0C254 0 231 0 207.8 0C184.7 0 161.3 0 138.2 0C115 0 92 0 69 0C46 0 23 0 11.5 0L0 0Z" fill="#323b87"></path><path d="M0 73L11.5 70.5C23 68 46 63 69 60.8C92 58.7 115 59.3 138.2 59.5C161.3 59.7 184.7 59.3 207.8 54.3C231 49.3 254 39.7 277 36.8C300 34 323 38 346 43.2C369 48.3 392 54.7 415.2 59.2C438.3 63.7 461.7 66.3 484.8 64.8C508 63.3 531 57.7 554 51.8C577 46 600 40 623 40C646 40 669 46 692.2 46C715.3 46 738.7 40 761.8 37C785 34 808 34 831 33C854 32 877 30 888.5 29L900 28L900 0L888.5 0C877 0 854 0 831 0C808 0 785 0 761.8 0C738.7 0 715.3 0 692.2 0C669 0 646 0 623 0C600 0 577 0 554 0C531 0 508 0 484.8 0C461.7 0 438.3 0 415.2 0C392 0 369 0 346 0C323 0 300 0 277 0C254 0 231 0 207.8 0C184.7 0 161.3 0 138.2 0C115 0 92 0 69 0C46 0 23 0 11.5 0L0 0Z" fill="#365391"></path></svg>