<svg id="visual" viewBox="0 0 900 200" width="900" height="200" xmlns="http://www.w3.org/2000/svg" xmlns:xlink="http://www.w3.org/1999/xlink" version="1.1"><path d="M0 127L8.8 112C17.7 97 35.3 67 53 63.7C70.7 60.3 88.3 83.7 106 89.5C123.7 95.3 141.3 83.7 159 91.2C176.7 98.7 194.3 125.3 212 137C229.7 148.7 247.3 145.3 265 130.2C282.7 115 300.3 88 318 71.8C335.7 55.7 353.3 50.3 371 61.3C388.7 72.3 406.3 99.7 423.8 106.2C441.3 112.7 458.7 98.3 476.2 94.8C493.7 91.3 511.3 98.7 529 106.2C546.7 113.7 564.3 121.3 582 124.7C599.7 128 617.3 127 635 127C652.7 127 670.3 128 688 120.3C705.7 112.7 723.3 96.3 741 91C758.7 85.7 776.3 91.3 794 102C811.7 112.7 829.3 128.3 847 118.5C864.7 108.7 882.3 73.3 891.2 55.7L900 38L900 201L891.2 201C882.3 201 864.7 201 847 201C829.3 201 811.7 201 794 201C776.3 201 758.7 201 741 201C723.3 201 705.7 201 688 201C670.3 201 652.7 201 635 201C617.3 201 599.7 201 582 201C564.3 201 546.7 201 529 201C511.3 201 493.7 201 476.2 201C458.7 201 441.3 201 423.8 201C406.3 201 388.7 201 371 201C353.3 201 335.7 201 318 201C300.3 201 282.7 201 265 201C247.3 201 229.7 201 212 201C194.3 201 176.7 201 159 201C141.3 201 123.7 201 106 201C88.3 201 70.7 201 53 201C35.3 201 17.7 201 8.8 201L0 201Z" fill="#365391" stroke-linecap="round" stroke-linejoin="miter"></path></svg>