<svg id="visual" viewBox="0 0 900 200" width="900" height="200" xmlns="http://www.w3.org/2000/svg" xmlns:xlink="http://www.w3.org/1999/xlink" version="1.1"><rect x="0" y="0" width="900" height="200" fill="#422487"></rect><path d="M0 168L8.3 166.8C16.7 165.7 33.3 163.3 50 148.2C66.7 133 83.3 105 100 84.3C116.7 63.7 133.3 50.3 150 52.2C166.7 54 183.3 71 200 80.5C216.7 90 233.3 92 250 86.3C266.7 80.7 283.3 67.3 300 68C316.7 68.7 333.3 83.3 350 90.5C366.7 97.7 383.3 97.3 400 104C416.7 110.7 433.3 124.3 450 118C466.7 111.7 483.3 85.3 500 73.3C516.7 61.3 533.3 63.7 550 63.7C566.7 63.7 583.3 61.3 600 70.2C616.7 79 633.3 99 650 100.7C666.7 102.3 683.3 85.7 700 83.8C716.7 82 733.3 95 750 96.8C766.7 98.7 783.3 89.3 800 76.7C816.7 64 833.3 48 850 53.7C866.7 59.3 883.3 86.7 891.7 100.3L900 114L900 0L891.7 0C883.3 0 866.7 0 850 0C833.3 0 816.7 0 800 0C783.3 0 766.7 0 750 0C733.3 0 716.7 0 700 0C683.3 0 666.7 0 650 0C633.3 0 616.7 0 600 0C583.3 0 566.7 0 550 0C533.3 0 516.7 0 500 0C483.3 0 466.7 0 450 0C433.3 0 416.7 0 400 0C383.3 0 366.7 0 350 0C333.3 0 316.7 0 300 0C283.3 0 266.7 0 250 0C233.3 0 216.7 0 200 0C183.3 0 166.7 0 150 0C133.3 0 116.7 0 100 0C83.3 0 66.7 0 50 0C33.3 0 16.7 0 8.3 0L0 0Z" fill="#365391" stroke-linecap="round" stroke-linejoin="miter"></path></svg>