<svg id="visual" viewBox="0 0 900 200" width="900" height="200" xmlns="http://www.w3.org/2000/svg" xmlns:xlink="http://www.w3.org/1999/xlink" version="1.1"><rect x="0" y="0" width="900" height="200" fill="#796dc9"></rect><path d="M0 91L11.5 90.8C23 90.7 46 90.3 69 81.5C92 72.7 115 55.3 138.2 58.8C161.3 62.3 184.7 86.7 207.8 92.5C231 98.3 254 85.7 277 78.2C300 70.7 323 68.3 346 67.3C369 66.3 392 66.7 415.2 71C438.3 75.3 461.7 83.7 484.8 87.2C508 90.7 531 89.3 554 81.5C577 73.7 600 59.3 623 54.2C646 49 669 53 692.2 62.2C715.3 71.3 738.7 85.7 761.8 92.2C785 98.7 808 97.3 831 88.2C854 79 877 62 888.5 53.5L900 45L900 201L888.5 201C877 201 854 201 831 201C808 201 785 201 761.8 201C738.7 201 715.3 201 692.2 201C669 201 646 201 623 201C600 201 577 201 554 201C531 201 508 201 484.8 201C461.7 201 438.3 201 415.2 201C392 201 369 201 346 201C323 201 300 201 277 201C254 201 231 201 207.8 201C184.7 201 161.3 201 138.2 201C115 201 92 201 69 201C46 201 23 201 11.5 201L0 201Z" fill="#7569c9"></path><path d="M0 127L11.5 126.8C23 126.7 46 126.3 69 122.7C92 119 115 112 138.2 108.7C161.3 105.3 184.7 105.7 207.8 106.5C231 107.3 254 108.7 277 108.3C300 108 323 106 346 102.3C369 98.7 392 93.3 415.2 93.3C438.3 93.3 461.7 98.7 484.8 105.7C508 112.7 531 121.3 554 119.3C577 117.3 600 104.7 623 103.5C646 102.3 669 112.7 692.2 119C715.3 125.3 738.7 127.7 761.8 123C785 118.3 808 106.7 831 106.3C854 106 877 117 888.5 122.5L900 128L900 201L888.5 201C877 201 854 201 831 201C808 201 785 201 761.8 201C738.7 201 715.3 201 692.2 201C669 201 646 201 623 201C600 201 577 201 554 201C531 201 508 201 484.8 201C461.7 201 438.3 201 415.2 201C392 201 369 201 346 201C323 201 300 201 277 201C254 201 231 201 207.8 201C184.7 201 161.3 201 138.2 201C115 201 92 201 69 201C46 201 23 201 11.5 201L0 201Z" fill="#7485dd"></path><path d="M0 142L11.5 143.7C23 145.3 46 148.7 69 150.5C92 152.3 115 152.7 138.2 148.2C161.3 143.7 184.7 134.3 207.8 134.3C231 134.3 254 143.7 277 151.2C300 158.7 323 164.3 346 161.5C369 158.7 392 147.3 415.2 141.8C438.3 136.3 461.7 136.7 484.8 140.7C508 144.7 531 152.3 554 156C577 159.7 600 159.3 623 156.3C646 153.3 669 147.7 692.2 146.2C715.3 144.7 738.7 147.3 761.8 148C785 148.7 808 147.3 831 147.2C854 147 877 148 888.5 148.5L900 149L900 201L888.5 201C877 201 854 201 831 201C808 201 785 201 761.8 201C738.7 201 715.3 201 692.2 201C669 201 646 201 623 201C600 201 577 201 554 201C531 201 508 201 484.8 201C461.7 201 438.3 201 415.2 201C392 201 369 201 346 201C323 201 300 201 277 201C254 201 231 201 207.8 201C184.7 201 161.3 201 138.2 201C115 201 92 201 69 201C46 201 23 201 11.5 201L0 201Z" fill="#79a0ed"></path></svg>