<svg id="visual" viewBox="0 0 900 200" width="900" height="200" xmlns="http://www.w3.org/2000/svg" xmlns:xlink="http://www.w3.org/1999/xlink" version="1.1"><rect x="0" y="0" width="900" height="200" fill="#6868e3"></rect><path d="M0 129L11.5 123.3C23 117.7 46 106.3 69 110.5C92 114.7 115 134.3 138.2 137.7C161.3 141 184.7 128 207.8 118.8C231 109.7 254 104.3 277 108.5C300 112.7 323 126.3 346 129C369 131.7 392 123.3 415.2 124C438.3 124.7 461.7 134.3 484.8 133.5C508 132.7 531 121.3 554 111.7C577 102 600 94 623 94C646 94 669 102 692.2 103.2C715.3 104.3 738.7 98.7 761.8 100.8C785 103 808 113 831 119.3C854 125.7 877 128.3 888.5 129.7L900 131L900 0L888.5 0C877 0 854 0 831 0C808 0 785 0 761.8 0C738.7 0 715.3 0 692.2 0C669 0 646 0 623 0C600 0 577 0 554 0C531 0 508 0 484.8 0C461.7 0 438.3 0 415.2 0C392 0 369 0 346 0C323 0 300 0 277 0C254 0 231 0 207.8 0C184.7 0 161.3 0 138.2 0C115 0 92 0 69 0C46 0 23 0 11.5 0L0 0Z" fill="#79a0ed"></path><path d="M0 120L11.5 110.5C23 101 46 82 69 71.5C92 61 115 59 138.2 59.7C161.3 60.3 184.7 63.7 207.8 67.3C231 71 254 75 277 78C300 81 323 83 346 80C369 77 392 69 415.2 69.5C438.3 70 461.7 79 484.8 87.3C508 95.7 531 103.3 554 109.7C577 116 600 121 623 117.5C646 114 669 102 692.2 98.5C715.3 95 738.7 100 761.8 104.5C785 109 808 113 831 106.5C854 100 877 83 888.5 74.5L900 66L900 0L888.5 0C877 0 854 0 831 0C808 0 785 0 761.8 0C738.7 0 715.3 0 692.2 0C669 0 646 0 623 0C600 0 577 0 554 0C531 0 508 0 484.8 0C461.7 0 438.3 0 415.2 0C392 0 369 0 346 0C323 0 300 0 277 0C254 0 231 0 207.8 0C184.7 0 161.3 0 138.2 0C115 0 92 0 69 0C46 0 23 0 11.5 0L0 0Z" fill="#6c90eb"></path><path d="M0 82L11.5 77.7C23 73.3 46 64.7 69 67.3C92 70 115 84 138.2 89.2C161.3 94.3 184.7 90.7 207.8 83.5C231 76.3 254 65.7 277 67.8C300 70 323 85 346 81.8C369 78.7 392 57.3 415.2 53C438.3 48.7 461.7 61.3 484.8 67.8C508 74.3 531 74.7 554 70.2C577 65.7 600 56.3 623 59.8C646 63.3 669 79.7 692.2 88.7C715.3 97.7 738.7 99.3 761.8 98.2C785 97 808 93 831 92C854 91 877 93 888.5 94L900 95L900 0L888.5 0C877 0 854 0 831 0C808 0 785 0 761.8 0C738.7 0 715.3 0 692.2 0C669 0 646 0 623 0C600 0 577 0 554 0C531 0 508 0 484.8 0C461.7 0 438.3 0 415.2 0C392 0 369 0 346 0C323 0 300 0 277 0C254 0 231 0 207.8 0C184.7 0 161.3 0 138.2 0C115 0 92 0 69 0C46 0 23 0 11.5 0L0 0Z" fill="#6280e7"></path><path d="M0 23L11.5 26.3C23 29.7 46 36.3 69 38.5C92 40.7 115 38.3 138.2 34.5C161.3 30.7 184.7 25.3 207.8 31C231 36.7 254 53.3 277 53.7C300 54 323 38 346 37.8C369 37.7 392 53.3 415.2 59.8C438.3 66.3 461.7 63.7 484.8 61C508 58.3 531 55.7 554 55.7C577 55.7 600 58.3 623 54.7C646 51 669 41 692.2 40.5C715.3 40 738.7 49 761.8 53.2C785 57.3 808 56.7 831 51.5C854 46.3 877 36.7 888.5 31.8L900 27L900 0L888.5 0C877 0 854 0 831 0C808 0 785 0 761.8 0C738.7 0 715.3 0 692.2 0C669 0 646 0 623 0C600 0 577 0 554 0C531 0 508 0 484.8 0C461.7 0 438.3 0 415.2 0C392 0 369 0 346 0C323 0 300 0 277 0C254 0 231 0 207.8 0C184.7 0 161.3 0 138.2 0C115 0 92 0 69 0C46 0 23 0 11.5 0L0 0Z" fill="#5d6fe2"></path><path d="M0 16L11.5 15.8C23 15.7 46 15.3 69 20.5C92 25.7 115 36.3 138.2 36.2C161.3 36 184.7 25 207.8 20.3C231 15.7 254 17.3 277 21C300 24.7 323 30.3 346 33.5C369 36.7 392 37.3 415.2 39.5C438.3 41.7 461.7 45.3 484.8 46.5C508 47.7 531 46.3 554 38.8C577 31.3 600 17.7 623 15.3C646 13 669 22 692.2 28.8C715.3 35.7 738.7 40.3 761.8 35.7C785 31 808 17 831 17.8C854 18.7 877 34.3 888.5 42.2L900 50L900 0L888.5 0C877 0 854 0 831 0C808 0 785 0 761.8 0C738.7 0 715.3 0 692.2 0C669 0 646 0 623 0C600 0 577 0 554 0C531 0 508 0 484.8 0C461.7 0 438.3 0 415.2 0C392 0 369 0 346 0C323 0 300 0 277 0C254 0 231 0 207.8 0C184.7 0 161.3 0 138.2 0C115 0 92 0 69 0C46 0 23 0 11.5 0L0 0Z" fill="#5c5cdb"></path></svg>