<svg id="visual" viewBox="0 0 900 200" width="900" height="200" xmlns="http://www.w3.org/2000/svg" xmlns:xlink="http://www.w3.org/1999/xlink" version="1.1"><path d="M0 82L10.7 82.5C21.3 83 42.7 84 64.2 92.2C85.7 100.3 107.3 115.7 128.8 124.7C150.3 133.7 171.7 136.3 193 135C214.3 133.7 235.7 128.3 257 118.8C278.3 109.3 299.7 95.7 321.2 91.3C342.7 87 364.3 92 385.8 101.8C407.3 111.7 428.7 126.3 450 119.8C471.3 113.3 492.7 85.7 514.2 81C535.7 76.3 557.3 94.7 578.8 105.3C600.3 116 621.7 119 643 121.3C664.3 123.7 685.7 125.3 707 123.5C728.3 121.7 749.7 116.3 771.2 111.3C792.7 106.3 814.3 101.7 835.8 105.8C857.3 110 878.7 123 889.3 129.5L900 136L900 0L889.3 0C878.7 0 857.3 0 835.8 0C814.3 0 792.7 0 771.2 0C749.7 0 728.3 0 707 0C685.7 0 664.3 0 643 0C621.7 0 600.3 0 578.8 0C557.3 0 535.7 0 514.2 0C492.7 0 471.3 0 450 0C428.7 0 407.3 0 385.8 0C364.3 0 342.7 0 321.2 0C299.7 0 278.3 0 257 0C235.7 0 214.3 0 193 0C171.7 0 150.3 0 128.8 0C107.3 0 85.7 0 64.2 0C42.7 0 21.3 0 10.7 0L0 0Z" fill="#796dc9" stroke-linecap="round" stroke-linejoin="miter"></path></svg>