<svg id="visual" viewBox="0 0 900 200" width="900" height="200" xmlns="http://www.w3.org/2000/svg" xmlns:xlink="http://www.w3.org/1999/xlink" version="1.1"><path d="M0 128L12.5 116.5C25 105 50 82 75 70.7C100 59.3 125 59.7 150 67.2C175 74.7 200 89.3 225 93C250 96.7 275 89.3 300 91.3C325 93.3 350 104.7 375 112.3C400 120 425 124 450 130C475 136 500 144 525 137.5C550 131 575 110 600 111C625 112 650 135 675 139.8C700 144.7 725 131.3 750 126C775 120.7 800 123.3 825 128.2C850 133 875 140 887.5 143.5L900 147L900 0L887.5 0C875 0 850 0 825 0C800 0 775 0 750 0C725 0 700 0 675 0C650 0 625 0 600 0C575 0 550 0 525 0C500 0 475 0 450 0C425 0 400 0 375 0C350 0 325 0 300 0C275 0 250 0 225 0C200 0 175 0 150 0C125 0 100 0 75 0C50 0 25 0 12.5 0L0 0Z" fill="#6868e3" stroke-linecap="round" stroke-linejoin="miter"></path></svg>