<svg id="visual" viewBox="0 0 900 200" width="900" height="200" xmlns="http://www.w3.org/2000/svg" xmlns:xlink="http://www.w3.org/1999/xlink" version="1.1"><rect x="0" y="0" width="900" height="200" fill="#796dc9"></rect><path d="M0 119L11.5 116.2C23 113.3 46 107.7 69 110.2C92 112.7 115 123.3 138.2 126.3C161.3 129.3 184.7 124.7 207.8 120.2C231 115.7 254 111.3 277 113.7C300 116 323 125 346 126.8C369 128.7 392 123.3 415.2 125.2C438.3 127 461.7 136 484.8 139.7C508 143.3 531 141.7 554 132C577 122.3 600 104.7 623 100.2C646 95.7 669 104.3 692.2 112.7C715.3 121 738.7 129 761.8 133.5C785 138 808 139 831 136.7C854 134.3 877 128.7 888.5 125.8L900 123L900 0L888.5 0C877 0 854 0 831 0C808 0 785 0 761.8 0C738.7 0 715.3 0 692.2 0C669 0 646 0 623 0C600 0 577 0 554 0C531 0 508 0 484.8 0C461.7 0 438.3 0 415.2 0C392 0 369 0 346 0C323 0 300 0 277 0C254 0 231 0 207.8 0C184.7 0 161.3 0 138.2 0C115 0 92 0 69 0C46 0 23 0 11.5 0L0 0Z" fill="#7569c9"></path><path d="M0 97L11.5 91.5C23 86 46 75 69 72C92 69 115 74 138.2 76.5C161.3 79 184.7 79 207.8 75.3C231 71.7 254 64.3 277 65.5C300 66.7 323 76.3 346 86.3C369 96.3 392 106.7 415.2 111.3C438.3 116 461.7 115 484.8 104.7C508 94.3 531 74.7 554 70.5C577 66.3 600 77.7 623 83.5C646 89.3 669 89.7 692.2 88.5C715.3 87.3 738.7 84.7 761.8 81.5C785 78.3 808 74.7 831 77.2C854 79.7 877 88.3 888.5 92.7L900 97L900 0L888.5 0C877 0 854 0 831 0C808 0 785 0 761.8 0C738.7 0 715.3 0 692.2 0C669 0 646 0 623 0C600 0 577 0 554 0C531 0 508 0 484.8 0C461.7 0 438.3 0 415.2 0C392 0 369 0 346 0C323 0 300 0 277 0C254 0 231 0 207.8 0C184.7 0 161.3 0 138.2 0C115 0 92 0 69 0C46 0 23 0 11.5 0L0 0Z" fill="#7485dd"></path><path d="M0 46L11.5 47.3C23 48.7 46 51.3 69 50.2C92 49 115 44 138.2 40.5C161.3 37 184.7 35 207.8 38.7C231 42.3 254 51.7 277 54.2C300 56.7 323 52.3 346 53.5C369 54.7 392 61.3 415.2 60.3C438.3 59.3 461.7 50.7 484.8 45.5C508 40.3 531 38.7 554 37.2C577 35.7 600 34.3 623 40C646 45.7 669 58.3 692.2 64.3C715.3 70.3 738.7 69.7 761.8 68.8C785 68 808 67 831 61C854 55 877 44 888.5 38.5L900 33L900 0L888.5 0C877 0 854 0 831 0C808 0 785 0 761.8 0C738.7 0 715.3 0 692.2 0C669 0 646 0 623 0C600 0 577 0 554 0C531 0 508 0 484.8 0C461.7 0 438.3 0 415.2 0C392 0 369 0 346 0C323 0 300 0 277 0C254 0 231 0 207.8 0C184.7 0 161.3 0 138.2 0C115 0 92 0 69 0C46 0 23 0 11.5 0L0 0Z" fill="#79a0ed"></path></svg>