<svg id="visual" viewBox="0 0 900 200" width="900" height="200" xmlns="http://www.w3.org/2000/svg" xmlns:xlink="http://www.w3.org/1999/xlink" version="1.1"><rect x="0" y="0" width="900" height="200" fill="#796dc9"></rect><path d="M0 82L11.5 77.7C23 73.3 46 64.7 69 67.3C92 70 115 84 138.2 81.8C161.3 79.7 184.7 61.3 207.8 57.5C231 53.7 254 64.3 277 76.2C300 88 323 101 346 99.8C369 98.7 392 83.3 415.2 83.7C438.3 84 461.7 100 484.8 101.8C508 103.7 531 91.3 554 85.7C577 80 600 81 623 86.2C646 91.3 669 100.7 692.2 100.5C715.3 100.3 738.7 90.7 761.8 79.2C785 67.7 808 54.3 831 49.3C854 44.3 877 47.7 888.5 49.3L900 51L900 201L888.5 201C877 201 854 201 831 201C808 201 785 201 761.8 201C738.7 201 715.3 201 692.2 201C669 201 646 201 623 201C600 201 577 201 554 201C531 201 508 201 484.8 201C461.7 201 438.3 201 415.2 201C392 201 369 201 346 201C323 201 300 201 277 201C254 201 231 201 207.8 201C184.7 201 161.3 201 138.2 201C115 201 92 201 69 201C46 201 23 201 11.5 201L0 201Z" fill="#79a0ed"></path><path d="M0 102L11.5 98.5C23 95 46 88 69 86.8C92 85.7 115 90.3 138.2 96.5C161.3 102.7 184.7 110.3 207.8 108.2C231 106 254 94 277 86.7C300 79.3 323 76.7 346 75.2C369 73.7 392 73.3 415.2 84.7C438.3 96 461.7 119 484.8 126.7C508 134.3 531 126.7 554 114.5C577 102.3 600 85.7 623 81.3C646 77 669 85 692.2 91.8C715.3 98.7 738.7 104.3 761.8 109.7C785 115 808 120 831 123.7C854 127.3 877 129.7 888.5 130.8L900 132L900 201L888.5 201C877 201 854 201 831 201C808 201 785 201 761.8 201C738.7 201 715.3 201 692.2 201C669 201 646 201 623 201C600 201 577 201 554 201C531 201 508 201 484.8 201C461.7 201 438.3 201 415.2 201C392 201 369 201 346 201C323 201 300 201 277 201C254 201 231 201 207.8 201C184.7 201 161.3 201 138.2 201C115 201 92 201 69 201C46 201 23 201 11.5 201L0 201Z" fill="#6c90eb"></path><path d="M0 146L11.5 141.3C23 136.7 46 127.3 69 122.3C92 117.3 115 116.7 138.2 123.2C161.3 129.7 184.7 143.3 207.8 143.3C231 143.3 254 129.7 277 119.5C300 109.3 323 102.7 346 109C369 115.3 392 134.7 415.2 143C438.3 151.3 461.7 148.7 484.8 143.2C508 137.7 531 129.3 554 125.7C577 122 600 123 623 121.2C646 119.3 669 114.7 692.2 109.7C715.3 104.7 738.7 99.3 761.8 101C785 102.7 808 111.3 831 116C854 120.7 877 121.3 888.5 121.7L900 122L900 201L888.5 201C877 201 854 201 831 201C808 201 785 201 761.8 201C738.7 201 715.3 201 692.2 201C669 201 646 201 623 201C600 201 577 201 554 201C531 201 508 201 484.8 201C461.7 201 438.3 201 415.2 201C392 201 369 201 346 201C323 201 300 201 277 201C254 201 231 201 207.8 201C184.7 201 161.3 201 138.2 201C115 201 92 201 69 201C46 201 23 201 11.5 201L0 201Z" fill="#6280e7"></path><path d="M0 180L11.5 171.3C23 162.7 46 145.3 69 137.8C92 130.3 115 132.7 138.2 133C161.3 133.3 184.7 131.7 207.8 138.5C231 145.3 254 160.7 277 161.5C300 162.3 323 148.7 346 145.3C369 142 392 149 415.2 155.8C438.3 162.7 461.7 169.3 484.8 172.7C508 176 531 176 554 173.2C577 170.3 600 164.7 623 156C646 147.3 669 135.7 692.2 136.5C715.3 137.3 738.7 150.7 761.8 156.7C785 162.7 808 161.3 831 155C854 148.7 877 137.3 888.5 131.7L900 126L900 201L888.5 201C877 201 854 201 831 201C808 201 785 201 761.8 201C738.7 201 715.3 201 692.2 201C669 201 646 201 623 201C600 201 577 201 554 201C531 201 508 201 484.8 201C461.7 201 438.3 201 415.2 201C392 201 369 201 346 201C323 201 300 201 277 201C254 201 231 201 207.8 201C184.7 201 161.3 201 138.2 201C115 201 92 201 69 201C46 201 23 201 11.5 201L0 201Z" fill="#5d6fe2"></path><path d="M0 147L11.5 152.2C23 157.3 46 167.7 69 173.2C92 178.7 115 179.3 138.2 179.2C161.3 179 184.7 178 207.8 177.7C231 177.3 254 177.7 277 179C300 180.3 323 182.7 346 182.8C369 183 392 181 415.2 176.3C438.3 171.7 461.7 164.3 484.8 163.7C508 163 531 169 554 173.7C577 178.3 600 181.7 623 182.8C646 184 669 183 692.2 182.7C715.3 182.3 738.7 182.7 761.8 177.7C785 172.7 808 162.3 831 163.2C854 164 877 176 888.5 182L900 188L900 201L888.5 201C877 201 854 201 831 201C808 201 785 201 761.8 201C738.7 201 715.3 201 692.2 201C669 201 646 201 623 201C600 201 577 201 554 201C531 201 508 201 484.8 201C461.7 201 438.3 201 415.2 201C392 201 369 201 346 201C323 201 300 201 277 201C254 201 231 201 207.8 201C184.7 201 161.3 201 138.2 201C115 201 92 201 69 201C46 201 23 201 11.5 201L0 201Z" fill="#5c5cdb"></path></svg>