<svg id="visual" viewBox="0 0 900 200" width="900" height="200" xmlns="http://www.w3.org/2000/svg" xmlns:xlink="http://www.w3.org/1999/xlink" version="1.1"><rect x="0" y="0" width="900" height="200" fill="#796dc9"></rect><path d="M0 61L12.5 71.2C25 81.3 50 101.7 75 119C100 136.3 125 150.7 150 142.7C175 134.7 200 104.3 225 91.5C250 78.7 275 83.3 300 89C325 94.7 350 101.3 375 115C400 128.7 425 149.3 450 140.5C475 131.7 500 93.3 525 90.5C550 87.7 575 120.3 600 125.3C625 130.3 650 107.7 675 88.7C700 69.7 725 54.3 750 57.7C775 61 800 83 825 90.2C850 97.3 875 89.7 887.5 85.8L900 82L900 0L887.5 0C875 0 850 0 825 0C800 0 775 0 750 0C725 0 700 0 675 0C650 0 625 0 600 0C575 0 550 0 525 0C500 0 475 0 450 0C425 0 400 0 375 0C350 0 325 0 300 0C275 0 250 0 225 0C200 0 175 0 150 0C125 0 100 0 75 0C50 0 25 0 12.5 0L0 0Z" fill="#79a0ed" stroke-linecap="round" stroke-linejoin="miter"></path></svg>