<svg id="visual" viewBox="0 0 900 100" width="900" height="100" xmlns="http://www.w3.org/2000/svg" xmlns:xlink="http://www.w3.org/1999/xlink" version="1.1"><rect x="0" y="0" width="900" height="100" fill="#422487"></rect><path d="M0 15L9.3 17C18.7 19 37.3 23 56.2 28.8C75 34.7 94 42.3 112.8 39.8C131.7 37.3 150.3 24.7 169 17C187.7 9.3 206.3 6.7 225 13.3C243.7 20 262.3 36 281.2 39.8C300 43.7 319 35.3 337.8 34.5C356.7 33.7 375.3 40.3 394 38C412.7 35.7 431.3 24.3 450 21.5C468.7 18.7 487.3 24.3 506.2 25.8C525 27.3 544 24.7 562.8 28.3C581.7 32 600.3 42 619 39.7C637.7 37.3 656.3 22.7 675 17.3C693.7 12 712.3 16 731.2 20.2C750 24.3 769 28.7 787.8 31.8C806.7 35 825.3 37 844 35.7C862.7 34.3 881.3 29.7 890.7 27.3L900 25L900 101L890.7 101C881.3 101 862.7 101 844 101C825.3 101 806.7 101 787.8 101C769 101 750 101 731.2 101C712.3 101 693.7 101 675 101C656.3 101 637.7 101 619 101C600.3 101 581.7 101 562.8 101C544 101 525 101 506.2 101C487.3 101 468.7 101 450 101C431.3 101 412.7 101 394 101C375.3 101 356.7 101 337.8 101C319 101 300 101 281.2 101C262.3 101 243.7 101 225 101C206.3 101 187.7 101 169 101C150.3 101 131.7 101 112.8 101C94 101 75 101 56.2 101C37.3 101 18.7 101 9.3 101L0 101Z" fill="#79a0ed"></path><path d="M0 40L9.3 37.8C18.7 35.7 37.3 31.3 56.2 28.2C75 25 94 23 112.8 28.2C131.7 33.3 150.3 45.7 169 47.2C187.7 48.7 206.3 39.3 225 33C243.7 26.7 262.3 23.3 281.2 26.5C300 29.7 319 39.3 337.8 44C356.7 48.7 375.3 48.3 394 46.5C412.7 44.7 431.3 41.3 450 42.2C468.7 43 487.3 48 506.2 50.7C525 53.3 544 53.7 562.8 49.7C581.7 45.7 600.3 37.3 619 32.7C637.7 28 656.3 27 675 31.2C693.7 35.3 712.3 44.7 731.2 47.7C750 50.7 769 47.3 787.8 44.3C806.7 41.3 825.3 38.7 844 42C862.7 45.3 881.3 54.7 890.7 59.3L900 64L900 101L890.7 101C881.3 101 862.7 101 844 101C825.3 101 806.7 101 787.8 101C769 101 750 101 731.2 101C712.3 101 693.7 101 675 101C656.3 101 637.7 101 619 101C600.3 101 581.7 101 562.8 101C544 101 525 101 506.2 101C487.3 101 468.7 101 450 101C431.3 101 412.7 101 394 101C375.3 101 356.7 101 337.8 101C319 101 300 101 281.2 101C262.3 101 243.7 101 225 101C206.3 101 187.7 101 169 101C150.3 101 131.7 101 112.8 101C94 101 75 101 56.2 101C37.3 101 18.7 101 9.3 101L0 101Z" fill="#6c90eb"></path><path d="M0 69L9.3 64.2C18.7 59.3 37.3 49.7 56.2 44C75 38.3 94 36.7 112.8 39C131.7 41.3 150.3 47.7 169 48.8C187.7 50 206.3 46 225 48.8C243.7 51.7 262.3 61.3 281.2 62.2C300 63 319 55 337.8 50.2C356.7 45.3 375.3 43.7 394 45.7C412.7 47.7 431.3 53.3 450 57.7C468.7 62 487.3 65 506.2 67.5C525 70 544 72 562.8 68.3C581.7 64.7 600.3 55.3 619 52.7C637.7 50 656.3 54 675 53.3C693.7 52.7 712.3 47.3 731.2 45.8C750 44.3 769 46.7 787.8 48.3C806.7 50 825.3 51 844 49.8C862.7 48.7 881.3 45.3 890.7 43.7L900 42L900 101L890.7 101C881.3 101 862.7 101 844 101C825.3 101 806.7 101 787.8 101C769 101 750 101 731.2 101C712.3 101 693.7 101 675 101C656.3 101 637.7 101 619 101C600.3 101 581.7 101 562.8 101C544 101 525 101 506.2 101C487.3 101 468.7 101 450 101C431.3 101 412.7 101 394 101C375.3 101 356.7 101 337.8 101C319 101 300 101 281.2 101C262.3 101 243.7 101 225 101C206.3 101 187.7 101 169 101C150.3 101 131.7 101 112.8 101C94 101 75 101 56.2 101C37.3 101 18.7 101 9.3 101L0 101Z" fill="#6280e7"></path><path d="M0 67L9.3 69.3C18.7 71.7 37.3 76.3 56.2 74.2C75 72 94 63 112.8 63.5C131.7 64 150.3 74 169 78.8C187.7 83.7 206.3 83.3 225 83C243.7 82.7 262.3 82.3 281.2 81.2C300 80 319 78 337.8 74.8C356.7 71.7 375.3 67.3 394 68.5C412.7 69.7 431.3 76.3 450 75.8C468.7 75.3 487.3 67.7 506.2 63C525 58.3 544 56.7 562.8 59.7C581.7 62.7 600.3 70.3 619 73.8C637.7 77.3 656.3 76.7 675 75.7C693.7 74.7 712.3 73.3 731.2 70.5C750 67.7 769 63.3 787.8 65C806.7 66.7 825.3 74.3 844 74C862.7 73.7 881.3 65.3 890.7 61.2L900 57L900 101L890.7 101C881.3 101 862.7 101 844 101C825.3 101 806.7 101 787.8 101C769 101 750 101 731.2 101C712.3 101 693.7 101 675 101C656.3 101 637.7 101 619 101C600.3 101 581.7 101 562.8 101C544 101 525 101 506.2 101C487.3 101 468.7 101 450 101C431.3 101 412.7 101 394 101C375.3 101 356.7 101 337.8 101C319 101 300 101 281.2 101C262.3 101 243.7 101 225 101C206.3 101 187.7 101 169 101C150.3 101 131.7 101 112.8 101C94 101 75 101 56.2 101C37.3 101 18.7 101 9.3 101L0 101Z" fill="#5d6fe2"></path><path d="M0 92L9.3 91.2C18.7 90.3 37.3 88.7 56.2 85.2C75 81.7 94 76.3 112.8 76.7C131.7 77 150.3 83 169 85.8C187.7 88.7 206.3 88.3 225 86C243.7 83.7 262.3 79.3 281.2 80.5C300 81.7 319 88.3 337.8 88.2C356.7 88 375.3 81 394 77C412.7 73 431.3 72 450 71.8C468.7 71.7 487.3 72.3 506.2 76.3C525 80.3 544 87.7 562.8 91.7C581.7 95.7 600.3 96.3 619 96.2C637.7 96 656.3 95 675 90.2C693.7 85.3 712.3 76.7 731.2 76.2C750 75.7 769 83.3 787.8 86.3C806.7 89.3 825.3 87.7 844 87.2C862.7 86.7 881.3 87.3 890.7 87.7L900 88L900 101L890.7 101C881.3 101 862.7 101 844 101C825.3 101 806.7 101 787.8 101C769 101 750 101 731.2 101C712.3 101 693.7 101 675 101C656.3 101 637.7 101 619 101C600.3 101 581.7 101 562.8 101C544 101 525 101 506.2 101C487.3 101 468.7 101 450 101C431.3 101 412.7 101 394 101C375.3 101 356.7 101 337.8 101C319 101 300 101 281.2 101C262.3 101 243.7 101 225 101C206.3 101 187.7 101 169 101C150.3 101 131.7 101 112.8 101C94 101 75 101 56.2 101C37.3 101 18.7 101 9.3 101L0 101Z" fill="#5c5cdb"></path></svg>